<svg width="162" height="58" viewBox="0 0 162 58" fill="none" xmlns="http://www.w3.org/2000/svg">
<path d="M31.448 22.392C31.448 22.712 31.352 22.968 31.16 23.16C27.448 25.4 23.32 28.952 18.776 33.816C14.296 38.616 10.904 44.152 8.6 50.424C7.832 53.496 7.032 55.032 6.2 55.032C4.28 55.032 3.32 54.584 3.32 53.688C4.28 43.384 4.76 37.304 4.76 35.448C4.76 30.136 3.96 27.448 2.36 27.384C2.232 27.448 2.008 27.736 1.688 28.248C1.432 28.76 1.208 29.016 1.016 29.016C0.44 29.016 0.152 28.568 0.152 27.672C0.152 26.392 1.208 25.752 3.32 25.752C7.352 25.752 9.368 29.304 9.368 36.408C9.368 37.048 9.144 39.128 8.696 42.648C8.696 42.904 8.824 43.032 9.08 43.032C9.208 43.032 9.432 42.776 9.752 42.264C14.296 35.928 18.392 30.872 22.04 27.096C25.752 23.256 28.504 21.336 30.296 21.336C31.064 21.336 31.448 21.688 31.448 22.392ZM62.51 9.336C62.51 8.76 61.71 8.472 60.11 8.472C56.27 8.472 52.142 9.176 47.726 10.584C43.31 11.928 39.502 13.816 36.302 16.248C33.166 18.68 31.598 21.112 31.598 23.544C31.598 25.912 34.382 30.008 39.95 35.832C45.518 41.656 48.302 46.04 48.302 48.984C48.302 51.096 47.246 52.856 45.134 54.264C43.022 55.672 40.494 56.376 37.55 56.376H35.15C29.006 56.376 24.718 54.488 22.286 50.712L22.478 50.136C25.23 51.416 28.174 52.056 31.31 52.056C34.446 52.056 37.55 51.448 40.622 50.232C43.758 49.016 45.326 47.576 45.326 45.912C45.326 44.952 43.95 43 41.198 40.056C35.886 34.488 32.558 30.712 31.214 28.728C29.934 26.744 29.294 24.376 29.294 21.624C29.294 14.52 35.918 9.24 49.166 5.784C55.054 4.44 58.414 3.768 59.246 3.768C60.078 3.768 60.846 3.864 61.55 4.056L63.95 6.552C64.974 7.704 65.55 8.664 65.678 9.432C65.678 10.776 63.95 12.376 60.494 14.232C57.102 16.024 55.022 16.92 54.254 16.92L54.158 16.44L59.054 13.08C61.358 11.544 62.51 10.296 62.51 9.336ZM59.1845 53.208L60.7205 52.728C61.0405 52.728 61.2005 52.888 61.2005 53.208C61.2005 54.232 60.0805 54.744 57.8405 54.744C54.7685 54.744 53.2325 52.184 53.2325 47.064C53.2325 43.672 54.2565 38.296 56.3045 30.936C58.3525 23.512 60.9445 16.568 64.0805 10.104C67.2165 3.64 70.0325 0.407999 72.5285 0.407999C73.9365 0.407999 75.3445 0.887999 76.7525 1.848C78.1605 2.744 78.8645 3.736 78.8645 4.824C78.8645 9.432 72.0805 19.672 58.5125 35.544C57.4245 40.28 56.8805 44.408 56.8805 47.928C56.8805 51.448 57.6485 53.208 59.1845 53.208ZM76.5605 4.536C76.5605 3.768 76.3365 3.384 75.8885 3.384C73.9685 3.384 71.1845 6.808 67.5365 13.656C63.8885 20.44 61.1045 26.904 59.1845 33.048C70.7685 17.88 76.5605 8.376 76.5605 4.536ZM85.2268 11.16C85.3548 11.16 85.4188 11.32 85.4188 11.64L84.9388 14.424C83.9788 18.392 82.5068 20.376 80.5228 20.376C79.0508 20.376 77.8988 19.992 77.0668 19.224C79.4988 17.56 82.2188 14.872 85.2268 11.16ZM80.2348 26.904C78.2508 30.296 76.3628 34.616 74.5708 39.864C72.7788 45.048 71.8828 48.632 71.8828 50.616C71.8828 52.6 72.2988 53.592 73.1308 53.592C73.7068 53.592 74.4428 53.24 75.3388 52.536C76.2348 51.832 76.7788 51.384 76.9708 51.192C77.1628 51 77.3868 50.808 77.6428 50.616C77.8988 50.616 78.0268 50.744 78.0268 51C78.0268 51.768 77.0988 52.664 75.2428 53.688C73.4508 54.776 72.1388 55.32 71.3068 55.32C68.8748 55.32 67.6588 53.56 67.6588 50.04C67.6588 44.792 69.5788 37.784 73.4188 29.016C73.4188 28.76 73.5788 28.28 73.8988 27.576C74.2828 26.872 74.5708 26.424 74.7628 26.232C75.2108 25.784 75.8188 25.56 76.5868 25.56C78.8268 25.56 80.0428 26.008 80.2348 26.904ZM111.004 5.4L107.74 6.072C107.292 6.072 107.068 5.88 107.068 5.496C107.068 4.472 108.508 3.96 111.388 3.96C115.804 3.96 118.012 5.464 118.012 8.472C118.012 9.496 116.028 14.04 112.06 22.104C108.156 30.104 106.14 34.264 106.012 34.584C102.62 42.008 100.924 47.96 100.924 52.44C100.924 55.064 101.564 56.376 102.844 56.376L105.724 55.32L106.012 55.416C106.012 55.864 105.532 56.312 104.572 56.76C103.676 57.208 102.972 57.432 102.46 57.432C99.5795 57.432 98.1395 55.128 98.1395 50.52C98.1395 47.64 99.1635 42.744 101.212 35.832C98.8435 40.632 96.2195 44.952 93.3395 48.792C90.4595 52.568 87.9955 54.456 85.9475 54.456C84.6675 54.456 83.3555 53.656 82.0115 52.056C80.7315 50.52 80.0915 49.08 80.0915 47.736C80.0915 43.768 82.2355 38.936 86.5235 33.24C90.8755 27.48 94.7475 24.6 98.1395 24.6C99.0355 24.6 100.028 24.888 101.116 25.464C102.268 25.976 102.844 26.552 102.844 27.192C102.844 27.768 102.556 28.056 101.98 28.056L100.06 27C97.8195 27 94.4595 30.232 89.9795 36.696C85.4995 43.096 83.2595 47.608 83.2595 50.232C83.2595 51.192 83.5155 51.672 84.0275 51.672C84.6035 51.672 85.7235 50.968 87.3875 49.56C89.0515 48.152 91.2915 45.816 94.1075 42.552C96.9875 39.224 99.8995 35.448 102.844 31.224C104.124 28.408 106.108 23.672 108.796 17.016C111.548 10.36 112.924 7 112.924 6.936C112.924 5.912 112.284 5.4 111.004 5.4ZM133.438 39C133.822 39 134.014 39.16 134.014 39.48C134.014 39.736 133.95 39.992 133.822 40.248C127.102 50.04 121.534 54.936 117.118 54.936C111.678 54.936 108.957 52.408 108.957 47.352C108.957 43.448 110.878 38.712 114.718 33.144C118.622 27.576 122.398 24.792 126.046 24.792C127.582 24.792 128.926 25.304 130.078 26.328C131.294 27.288 131.902 28.472 131.902 29.88C131.902 32.312 130.398 34.712 127.39 37.08C124.382 39.448 121.47 40.632 118.654 40.632C118.078 40.632 117.79 40.504 117.79 40.248L118.078 39.768C125.438 37.464 129.118 33.688 129.118 28.44C129.118 27.672 128.862 27.288 128.35 27.288C127.582 27.288 126.302 28.024 124.51 29.496C121.374 32.056 118.654 35.256 116.35 39.096C114.046 42.936 112.894 46.168 112.894 48.792C112.894 51.416 113.886 52.728 115.87 52.728C118.11 52.728 120.638 51.544 123.454 49.176C125.246 47.512 127.326 45.4 129.694 42.84C132.126 40.28 133.374 39 133.438 39ZM161.124 24.888C161.124 24.632 160.772 24.984 160.068 25.944C157.636 29.336 156.324 31.832 156.132 33.432C156.132 35.16 156.74 36.216 157.956 36.6C158.404 36.728 158.628 36.824 158.628 36.888C158.628 37.4 157.988 37.656 156.708 37.656C155.492 37.656 154.436 37.176 153.54 36.216C152.644 35.192 152.196 34.072 152.196 32.856C152.196 31.576 152.356 30.488 152.676 29.592C149.54 32.088 146.916 34.648 144.804 37.272C142.756 39.896 141.348 42.168 140.58 44.088C139.812 46.008 139.236 47.768 138.852 49.368C138.468 50.904 138.148 52.056 137.892 52.824C137.636 53.656 137.22 54.072 136.644 54.072C136.068 54.072 135.428 53.912 134.724 53.592C134.02 53.272 133.668 52.888 133.668 52.44C133.668 51.352 134.724 47.512 136.836 40.92C138.948 34.264 140.004 29.272 140.004 25.944C140.004 24.856 139.556 24.28 138.66 24.216C137.764 24.088 137.316 23.896 137.316 23.64C137.316 23.064 137.796 22.776 138.756 22.776C143.044 22.776 145.188 24.536 145.188 28.056C145.188 29.08 144.132 32.856 142.02 39.384C145.476 33.752 149.316 29.88 153.54 27.768C154.564 25.464 156.068 24.312 158.052 24.312C160.1 24.312 161.124 24.504 161.124 24.888Z" fill="#41B883"/>
</svg>
